<mxfile>
    <diagram id="J2tYgQzWkE0d9zS7tPdh" name="Page-1">
        <mxGraphModel dx="1056" dy="807" grid="1" gridSize="10" guides="1" tooltips="1" connect="1" arrows="1" fold="1" page="1" pageScale="1" pageWidth="850" pageHeight="1100" math="0" shadow="0">
            <root>
                <mxCell id="0"/>
                <mxCell id="1" parent="0"/>
                <mxCell id="Ons94C2ZRACeFPXKF9dP-36" value="" style="rounded=0;whiteSpace=wrap;html=1;fontColor=#FF0000;fillColor=none;" parent="1" vertex="1">
                    <mxGeometry x="250" y="80" width="950" height="630" as="geometry"/>
                </mxCell>
                <mxCell id="Ons94C2ZRACeFPXKF9dP-13" value="wbe_odm" style="shape=folder;fontStyle=1;spacingTop=10;tabWidth=40;tabHeight=14;tabPosition=left;html=1;" parent="1" vertex="1">
                    <mxGeometry x="280" y="90" width="880" height="50" as="geometry"/>
                </mxCell>
                <mxCell id="Ons94C2ZRACeFPXKF9dP-15" value="odm.py " style="shape=module;align=left;spacingLeft=20;align=center;verticalAlign=top;" parent="1" vertex="1">
                    <mxGeometry x="490" y="200" width="190" height="40" as="geometry"/>
                </mxCell>
                <mxCell id="Ons94C2ZRACeFPXKF9dP-16" value="utilities.py " style="shape=module;align=left;spacingLeft=20;align=center;verticalAlign=top;" parent="1" vertex="1">
                    <mxGeometry x="710" y="200" width="150" height="40" as="geometry"/>
                </mxCell>
                <mxCell id="Ons94C2ZRACeFPXKF9dP-17" value="visualisation_helpers.py " style="shape=module;align=left;spacingLeft=20;align=center;verticalAlign=top;" parent="1" vertex="1">
                    <mxGeometry x="1000" y="260" width="160" height="50" as="geometry"/>
                </mxCell>
                <mxCell id="Ons94C2ZRACeFPXKF9dP-18" value="&lt;p style=&quot;margin: 0px ; margin-top: 4px ; text-align: center ; text-decoration: underline&quot;&gt;&lt;b&gt;Odm&lt;/b&gt;&lt;/p&gt;&lt;hr&gt;&lt;p style=&quot;margin: 0px ; margin-left: 8px&quot;&gt;Attributes&lt;br&gt;&lt;/p&gt;&lt;p style=&quot;margin: 0px ; margin-left: 8px&quot;&gt;ww_measure: DataFrame&lt;/p&gt;&lt;p style=&quot;margin: 0px ; margin-left: 8px&quot;&gt;sample: DataFrame&lt;/p&gt;&lt;p style=&quot;margin: 0px ; margin-left: 8px&quot;&gt;site: DataFrame&lt;/p&gt;&lt;p style=&quot;margin: 0px ; margin-left: 8px&quot;&gt;...&lt;/p&gt;&lt;p style=&quot;margin: 0px ; margin-left: 8px&quot;&gt;&lt;br&gt;&lt;/p&gt;&lt;p style=&quot;margin: 0px ; margin-left: 8px&quot;&gt;Methods&lt;/p&gt;&lt;p style=&quot;margin: 0px ; margin-left: 8px&quot;&gt;&lt;font color=&quot;#ffffff&quot;&gt;load_from(__mapper__)&lt;/font&gt;&lt;/p&gt;&lt;p style=&quot;margin: 0px ; margin-left: 8px&quot;&gt;&lt;font color=&quot;#ffffff&quot;&gt;apprend_from(__mapper__)&lt;/font&gt;&lt;br&gt;&lt;/p&gt;&lt;p style=&quot;margin: 0px ; margin-left: 8px&quot;&gt;save_to_db()&lt;/p&gt;&lt;p style=&quot;margin: 0px ; margin-left: 8px&quot;&gt;append_odm()&lt;/p&gt;&lt;p style=&quot;margin: 0px ; margin-left: 8px&quot;&gt;widen()&lt;/p&gt;&lt;p style=&quot;margin: 0px ; margin-left: 8px&quot;&gt;get_geoJSON()&lt;/p&gt;&lt;p style=&quot;margin: 0px ; margin-left: 8px&quot;&gt;combine_per_sample()&lt;/p&gt;&lt;p style=&quot;margin: 0px ; margin-left: 8px&quot;&gt;export_to_csv()&lt;br&gt;&lt;/p&gt;&lt;p style=&quot;margin: 0px ; margin-left: 8px&quot;&gt;&lt;br&gt;&lt;/p&gt;" style="verticalAlign=top;align=left;overflow=fill;fontSize=12;fontFamily=Helvetica;html=1;" parent="1" vertex="1">
                    <mxGeometry x="490" y="260" width="190" height="320" as="geometry"/>
                </mxCell>
                <mxCell id="Ons94C2ZRACeFPXKF9dP-19" value="&lt;p style=&quot;margin: 0px ; margin-top: 4px ; text-align: center ; text-decoration: underline&quot;&gt;&lt;b&gt;OdmEncoder&lt;/b&gt;&lt;/p&gt;&lt;hr&gt;default() -&amp;gt; turns Odm object&lt;br&gt;&amp;nbsp; &amp;nbsp; &amp;nbsp;into JSON string" style="verticalAlign=top;align=left;overflow=fill;fontSize=12;fontFamily=Helvetica;html=1;" parent="1" vertex="1">
                    <mxGeometry x="490" y="630" width="170" height="60" as="geometry"/>
                </mxCell>
                <mxCell id="Ons94C2ZRACeFPXKF9dP-21" value="&lt;div&gt;&lt;b&gt;Body Functions:&lt;/b&gt;&lt;/div&gt;&lt;div&gt;&lt;br&gt;&lt;/div&gt;&lt;div&gt;&lt;span&gt;keep_only_features()&lt;/span&gt;&lt;br&gt;&lt;/div&gt;&lt;div&gt;reduce()&lt;/div&gt;&lt;div&gt;convert_wkt_to_geojson&lt;/div&gt;&lt;div&gt;&lt;br&gt;&lt;/div&gt;&lt;div&gt;&lt;br&gt;&lt;/div&gt;" style="verticalAlign=top;align=left;overflow=fill;fontSize=12;fontFamily=Helvetica;html=1;" parent="1" vertex="1">
                    <mxGeometry x="710" y="260" width="150" height="320" as="geometry"/>
                </mxCell>
                <mxCell id="Ons94C2ZRACeFPXKF9dP-22" value="Excel data template" style="html=1;" parent="1" vertex="1">
                    <mxGeometry x="20" y="200" width="180" height="50" as="geometry"/>
                </mxCell>
                <mxCell id="Ons94C2ZRACeFPXKF9dP-23" value="DB" style="shape=cylinder3;whiteSpace=wrap;html=1;boundedLbl=1;backgroundOutline=1;size=15;" parent="1" vertex="1">
                    <mxGeometry x="50" y="560" width="110" height="130" as="geometry"/>
                </mxCell>
                <mxCell id="Ons94C2ZRACeFPXKF9dP-24" value="" style="endArrow=classic;html=1;exitX=1;exitY=0.5;exitDx=0;exitDy=0;" parent="1" source="Ons94C2ZRACeFPXKF9dP-22" target="Ons94C2ZRACeFPXKF9dP-33" edge="1">
                    <mxGeometry width="50" height="50" relative="1" as="geometry">
                        <mxPoint x="155" y="320" as="sourcePoint"/>
                        <mxPoint x="250" y="380" as="targetPoint"/>
                    </mxGeometry>
                </mxCell>
                <mxCell id="Ons94C2ZRACeFPXKF9dP-25" value="" style="endArrow=classic;html=1;entryX=1.009;entryY=0.569;entryDx=0;entryDy=0;entryPerimeter=0;" parent="1" target="Ons94C2ZRACeFPXKF9dP-23" edge="1">
                    <mxGeometry width="50" height="50" relative="1" as="geometry">
                        <mxPoint x="510" y="580" as="sourcePoint"/>
                        <mxPoint x="410" y="650" as="targetPoint"/>
                    </mxGeometry>
                </mxCell>
                <mxCell id="Ons94C2ZRACeFPXKF9dP-26" value="" style="endArrow=classic;html=1;entryX=-0.005;entryY=0.941;entryDx=0;entryDy=0;exitX=1;exitY=0.5;exitDx=0;exitDy=0;exitPerimeter=0;entryPerimeter=0;" parent="1" source="Ons94C2ZRACeFPXKF9dP-23" target="Ons94C2ZRACeFPXKF9dP-33" edge="1">
                    <mxGeometry width="50" height="50" relative="1" as="geometry">
                        <mxPoint x="160" y="810" as="sourcePoint"/>
                        <mxPoint x="260" y="740" as="targetPoint"/>
                    </mxGeometry>
                </mxCell>
                <mxCell id="Ons94C2ZRACeFPXKF9dP-27" value="Geometry file (wkt, geoJSON)" style="html=1;" parent="1" vertex="1">
                    <mxGeometry x="20" y="130" width="180" height="50" as="geometry"/>
                </mxCell>
                <mxCell id="Ons94C2ZRACeFPXKF9dP-28" value="" style="endArrow=classic;html=1;exitX=1;exitY=0.5;exitDx=0;exitDy=0;" parent="1" source="Ons94C2ZRACeFPXKF9dP-27" target="Ons94C2ZRACeFPXKF9dP-33" edge="1">
                    <mxGeometry width="50" height="50" relative="1" as="geometry">
                        <mxPoint x="180" y="250" as="sourcePoint"/>
                        <mxPoint x="275" y="310" as="targetPoint"/>
                    </mxGeometry>
                </mxCell>
                <mxCell id="Ons94C2ZRACeFPXKF9dP-29" value="line-level (individual) health data" style="html=1;" parent="1" vertex="1">
                    <mxGeometry x="20" y="410" width="180" height="50" as="geometry"/>
                </mxCell>
                <mxCell id="Ons94C2ZRACeFPXKF9dP-30" value="" style="endArrow=classic;html=1;exitX=1;exitY=0.5;exitDx=0;exitDy=0;" parent="1" source="Ons94C2ZRACeFPXKF9dP-29" edge="1">
                    <mxGeometry width="50" height="50" relative="1" as="geometry">
                        <mxPoint x="210" y="550" as="sourcePoint"/>
                        <mxPoint x="280" y="500" as="targetPoint"/>
                    </mxGeometry>
                </mxCell>
                <mxCell id="Ons94C2ZRACeFPXKF9dP-31" value="aggregate health data" style="html=1;" parent="1" vertex="1">
                    <mxGeometry x="20" y="480" width="180" height="50" as="geometry"/>
                </mxCell>
                <mxCell id="Ons94C2ZRACeFPXKF9dP-32" value="" style="endArrow=classic;html=1;entryX=0.005;entryY=0.85;entryDx=0;entryDy=0;entryPerimeter=0;exitX=1;exitY=0.5;exitDx=0;exitDy=0;" parent="1" source="Ons94C2ZRACeFPXKF9dP-31" target="Ons94C2ZRACeFPXKF9dP-33" edge="1">
                    <mxGeometry width="50" height="50" relative="1" as="geometry">
                        <mxPoint x="190" y="650" as="sourcePoint"/>
                        <mxPoint x="290" y="580" as="targetPoint"/>
                    </mxGeometry>
                </mxCell>
                <mxCell id="Ons94C2ZRACeFPXKF9dP-33" value="&lt;p style=&quot;margin: 0px ; margin-top: 4px ; text-align: center ; text-decoration: underline&quot;&gt;&lt;b&gt;Mapper Abstract Base Class&lt;/b&gt;&lt;br&gt;&lt;/p&gt;&lt;hr&gt;&lt;p style=&quot;margin: 0px ; margin-left: 8px&quot;&gt;Attributes&lt;br&gt;&lt;/p&gt;* ww_measure: DataFrame,&lt;br&gt;* sample: DataFrame,&lt;br&gt;* ...&lt;br&gt;* conversion_dict&lt;br&gt;&lt;p style=&quot;margin: 0px ; margin-left: 8px&quot;&gt;&lt;br&gt;&lt;/p&gt;&lt;p style=&quot;margin: 0px ; margin-left: 8px&quot;&gt;Methods&lt;/p&gt;&lt;p style=&quot;margin: 0px ; margin-left: 8px&quot;&gt;1) validates() -&amp;gt; bool&lt;/p&gt;&lt;p style=&quot;margin: 0px ; margin-left: 8px&quot;&gt;2) read() -&amp;gt; DataFrames stored&lt;/p&gt;&lt;p style=&quot;margin: 0px ; margin-left: 8px&quot;&gt;&amp;nbsp; &amp;nbsp; in attributes&lt;/p&gt;&lt;p style=&quot;margin: 0px ; margin-left: 8px&quot;&gt;3) type_cast_table() -&amp;gt;&lt;/p&gt;&lt;p style=&quot;margin: 0px ; margin-left: 8px&quot;&gt;&amp;nbsp; &amp;nbsp;DataFrame with&lt;/p&gt;&lt;p style=&quot;margin: 0px ; margin-left: 8px&quot;&gt;&amp;nbsp; &amp;nbsp;the ODM-mandated&lt;/p&gt;&lt;p style=&quot;margin: 0px ; margin-left: 8px&quot;&gt;&amp;nbsp; &amp;nbsp;data type for each column&lt;/p&gt;&lt;br&gt;&lt;p style=&quot;margin: 0px ; margin-left: 8px&quot;&gt;&lt;br&gt;&lt;/p&gt;" style="verticalAlign=top;align=left;overflow=fill;fontSize=12;fontFamily=Helvetica;html=1;" parent="1" vertex="1">
                    <mxGeometry x="280" y="260" width="190" height="320" as="geometry"/>
                </mxCell>
                <mxCell id="Ons94C2ZRACeFPXKF9dP-35" value="&lt;div&gt;wbe_tools&lt;/div&gt;" style="shape=folder;fontStyle=1;spacingTop=10;tabWidth=40;tabHeight=14;tabPosition=left;html=1;" parent="1" vertex="1">
                    <mxGeometry x="900" y="190" width="260" height="50" as="geometry"/>
                </mxCell>
                <mxCell id="Ons94C2ZRACeFPXKF9dP-38" value="app.py" style="shape=module;align=left;spacingLeft=20;align=center;verticalAlign=top;" parent="1" vertex="1">
                    <mxGeometry x="900" y="260" width="80" height="50" as="geometry"/>
                </mxCell>
                <mxCell id="Ons94C2ZRACeFPXKF9dP-39" value="app.ipynb" style="shape=module;align=left;spacingLeft=20;align=center;verticalAlign=top;" parent="1" vertex="1">
                    <mxGeometry x="900" y="340" width="80" height="50" as="geometry"/>
                </mxCell>
                <mxCell id="2" value="odm_mappers" style="shape=folder;fontStyle=1;spacingTop=10;tabWidth=40;tabHeight=14;tabPosition=left;html=1;" parent="1" vertex="1">
                    <mxGeometry x="280" y="190" width="190" height="50" as="geometry"/>
                </mxCell>
                <mxCell id="3" value="JSON" style="html=1;" parent="1" vertex="1">
                    <mxGeometry x="20" y="265" width="180" height="50" as="geometry"/>
                </mxCell>
                <mxCell id="4" value="Lab data sheets" style="html=1;" parent="1" vertex="1">
                    <mxGeometry x="20" y="330" width="180" height="50" as="geometry"/>
                </mxCell>
                <mxCell id="5" value="" style="endArrow=classic;html=1;exitX=1;exitY=0.5;exitDx=0;exitDy=0;entryX=-0.011;entryY=0.313;entryDx=0;entryDy=0;entryPerimeter=0;" parent="1" source="3" target="Ons94C2ZRACeFPXKF9dP-33" edge="1">
                    <mxGeometry width="50" height="50" relative="1" as="geometry">
                        <mxPoint x="165" y="330" as="sourcePoint"/>
                        <mxPoint x="290" y="386.81818181818176" as="targetPoint"/>
                    </mxGeometry>
                </mxCell>
                <mxCell id="6" value="" style="endArrow=classic;html=1;exitX=1;exitY=0.5;exitDx=0;exitDy=0;" parent="1" source="4" target="Ons94C2ZRACeFPXKF9dP-33" edge="1">
                    <mxGeometry width="50" height="50" relative="1" as="geometry">
                        <mxPoint x="175" y="340" as="sourcePoint"/>
                        <mxPoint x="300" y="396.81818181818176" as="targetPoint"/>
                    </mxGeometry>
                </mxCell>
            </root>
        </mxGraphModel>
    </diagram>
</mxfile>